<svg width="478" height="400" viewBox="0 0 478 400" xmlns="http://www.w3.org/2000/svg"><mask id="satori_om-id"><rect x="0" y="0" width="478" height="400" fill="#fff"/></mask><rect x="0" y="0" width="478" height="400" fill="#fff"/><clipPath id="satori_cp-id-0"><rect x="202" y="128" width="75" height="65"/></clipPath><mask id="satori_om-id-0"><rect x="202" y="128" width="75" height="65" fill="#fff"/></mask><image x="202" y="128" width="75" height="65" href="data:image/svg+xml;utf8,%3Csvg  fill=%22%23000%22 xmlns=%22http://www.w3.org/2000/svg%22 width=%22NaN%22 height=%22null%22 viewBox=%220 0 75 65%22%3E%3Cpath d=%22M37.59.25l36.95 64H.64l36.95-64z%22%3E%3C/path%3E%3C/svg%3E" preserveAspectRatio="none" clip-path="url(#satori_cp-id-0)" mask="url(#satori_om-id-0)"/><mask id="satori_om-id-0-0"><rect x="202" y="128" width="0" height="65" fill="#fff"/></mask><mask id="satori_om-id-1"><rect x="143" y="233" width="193" height="39" fill="#fff"/></mask><path fill="black" d="M149.9 263.0L145.0 263.0L145.0 239.7L149.9 239.7L149.9 249.3L159.9 249.3L159.9 239.7L164.8 239.7L164.8 263.0L159.9 263.0L159.9 253.3L149.9 253.3L149.9 263.0ZM176.8 263.3L176.8 263.3Q174.1 263.3 172.1 262.2Q170.2 261.1 169.1 259.1Q168.1 257.1 168.1 254.3L168.1 254.3Q168.1 251.6 169.1 249.6Q170.2 247.5 172.1 246.4Q174 245.3 176.6 245.3L176.6 245.3Q178.3 245.3 179.8 245.8Q181.3 246.4 182.4 247.5Q183.5 248.6 184.1 250.2Q184.8 251.9 184.8 254.1L184.8 254.1L184.8 255.5L170.0 255.5L170.0 252.5L180.2 252.5Q180.2 251.4 179.8 250.6Q179.3 249.8 178.5 249.3Q177.7 248.9 176.6 248.9L176.6 248.9Q175.5 248.9 174.7 249.4Q173.9 249.9 173.4 250.7Q172.9 251.6 172.9 252.6L172.9 252.6L172.9 255.5Q172.9 256.8 173.4 257.7Q173.9 258.7 174.7 259.2Q175.6 259.7 176.8 259.7L176.8 259.7Q177.6 259.7 178.3 259.5Q179.0 259.2 179.5 258.8Q179.9 258.3 180.2 257.7L180.2 257.7L184.7 258.0Q184.3 259.6 183.3 260.8Q182.2 262.0 180.6 262.6Q178.9 263.3 176.8 263.3ZM187.9 239.7L192.8 239.7L192.8 263.0L187.9 263.0L187.9 239.7ZM196.6 239.7L201.5 239.7L201.5 263.0L196.6 263.0L196.6 239.7ZM213.2 263.3L213.2 263.3Q210.6 263.3 208.7 262.2Q206.7 261.0 205.7 259.0Q204.6 257.0 204.6 254.3L204.6 254.3Q204.6 251.6 205.7 249.6Q206.7 247.5 208.7 246.4Q210.6 245.3 213.2 245.3L213.2 245.3Q215.9 245.3 217.8 246.4Q219.7 247.5 220.8 249.6Q221.8 251.6 221.8 254.3L221.8 254.3Q221.8 257.0 220.8 259.0Q219.7 261.0 217.8 262.2Q215.9 263.3 213.2 263.3ZM213.3 259.5L213.3 259.5Q214.5 259.5 215.3 258.9Q216.1 258.2 216.5 257.0Q216.9 255.8 216.9 254.3L216.9 254.3Q216.9 252.7 216.5 251.5Q216.1 250.3 215.3 249.7Q214.5 249.0 213.3 249.0L213.3 249.0Q212.0 249.0 211.2 249.7Q210.4 250.3 210.0 251.5Q209.6 252.7 209.6 254.3L209.6 254.3Q209.6 255.8 210.0 257.0Q210.4 258.2 211.2 258.9Q212.0 259.5 213.3 259.5ZM226.2 259.8L230.2 259.8L230.1 261.0Q230.0 262.5 229.6 264.0Q229.1 265.5 228.7 266.7Q228.2 267.9 228.0 268.6L228.0 268.6L224.8 268.6Q225.0 268.0 225.3 266.8Q225.6 265.6 225.9 264.1Q226.1 262.6 226.2 261.0L226.2 261.0L226.2 259.8Z M252.2 263.0L247.4 263.0L240.8 239.7L246.1 239.7L250.0 255.8L250.2 255.8L254.4 239.7L259.0 239.7L263.3 255.9L263.5 255.9L267.3 239.7L272.7 239.7L266.0 263.0L261.3 263.0L256.8 247.7L256.6 247.7L252.2 263.0ZM281.2 263.3L281.2 263.3Q278.6 263.3 276.7 262.2Q274.7 261.0 273.7 259.0Q272.6 257.0 272.6 254.3L272.6 254.3Q272.6 251.6 273.7 249.6Q274.7 247.5 276.7 246.4Q278.6 245.3 281.2 245.3L281.2 245.3Q283.9 245.3 285.8 246.4Q287.7 247.5 288.8 249.6Q289.8 251.6 289.8 254.3L289.8 254.3Q289.8 257.0 288.8 259.0Q287.7 261.0 285.8 262.2Q283.9 263.3 281.2 263.3ZM281.3 259.5L281.3 259.5Q282.5 259.5 283.3 258.9Q284.1 258.2 284.5 257.0Q284.9 255.8 284.9 254.3L284.9 254.3Q284.9 252.7 284.5 251.5Q284.1 250.3 283.3 249.7Q282.5 249.0 281.3 249.0L281.3 249.0Q280.0 249.0 279.2 249.7Q278.4 250.3 278.0 251.5Q277.6 252.7 277.6 254.3L277.6 254.3Q277.6 255.8 278.0 257.0Q278.4 258.2 279.2 258.9Q280.0 259.5 281.3 259.5ZM297.8 263.0L293.0 263.0L293.0 245.5L297.7 245.5L297.7 248.5L297.9 248.5Q298.3 246.9 299.5 246.1Q300.6 245.2 302.1 245.2L302.1 245.2Q302.4 245.2 302.8 245.3Q303.3 245.3 303.6 245.4L303.6 245.4L303.6 249.7Q303.2 249.6 302.6 249.5Q302.0 249.5 301.5 249.5L301.5 249.5Q300.5 249.5 299.6 249.9Q298.8 250.4 298.3 251.2Q297.8 252.0 297.8 253.1L297.8 253.1L297.8 263.0ZM306.1 239.7L310.9 239.7L310.9 263.0L306.1 263.0L306.1 239.7ZM321.2 263.2L321.2 263.2Q319.2 263.2 317.6 262.2Q316 261.2 315.1 259.2Q314.1 257.2 314.1 254.2L314.1 254.2Q314.1 251.2 315.1 249.3Q316.1 247.3 317.7 246.3Q319.3 245.3 321.2 245.3L321.2 245.3Q322.7 245.3 323.6 245.8Q324.6 246.3 325.2 247.0Q325.8 247.7 326.2 248.4L326.2 248.4L326.3 248.4L326.3 239.7L331.1 239.7L331.1 263.0L326.4 263.0L326.4 260.2L326.2 260.2Q325.8 260.9 325.2 261.6Q324.6 262.3 323.6 262.8Q322.6 263.2 321.2 263.2ZM322.7 259.4L322.7 259.4Q323.9 259.4 324.7 258.7Q325.5 258.1 326.0 256.9Q326.4 255.8 326.4 254.2L326.4 254.2Q326.4 252.7 326.0 251.5Q325.5 250.4 324.7 249.7Q323.9 249.1 322.7 249.1L322.7 249.1Q321.5 249.1 320.7 249.8Q319.9 250.4 319.5 251.6Q319.1 252.7 319.1 254.2L319.1 254.2Q319.1 255.7 319.5 256.9Q319.9 258.1 320.7 258.7Q321.5 259.4 322.7 259.4Z "/></svg>